<svg width="24" height="21" viewBox="0 0 24 21" fill="none" xmlns="http://www.w3.org/2000/svg">
  <path d="M14.489 13.1807C14.3696 13.2755 14.3 13.4197 14.3 13.5722V14.7C14.3 14.9253 14.3326 15.203 14.4732 15.4994C14.6138 15.7959 14.8474 16.0797 15.2033 16.342C15.8993 16.8552 17.0935 17.3086 19.1177 17.6432C21.0005 17.9602 22.5151 19.0443 23.2537 20.5H0.655958C1.19275 19.0419 2.62304 17.9144 4.47215 17.6448L4.47215 17.6448L4.47685 17.6441C6.50643 17.3283 7.78489 16.8766 8.56919 16.3755C9.36517 15.867 9.7 15.2705 9.7 14.7V13.5722C9.7 13.4197 9.63039 13.2755 9.51097 13.1807C8.1334 12.0866 6.9 10.3494 6.9 8.4V5.03611C6.9 3.37303 7.56673 2.26285 8.50891 1.55408C9.47039 0.830788 10.7561 0.5 12 0.5C13.2439 0.5 14.5296 0.830788 15.4911 1.55408C16.4333 2.26285 17.1 3.37303 17.1 5.03611V8.4C17.1 10.3307 15.8658 12.0872 14.489 13.1807Z" stroke="#222222" stroke-miterlimit="10" stroke-linecap="round" stroke-linejoin="round"></path>
</svg>