<svg width="24" height="21" viewBox="0 0 24 21" fill="none" xmlns="http://www.w3.org/2000/svg">
  <path d="M11.5322 4.01538C11.6056 4.21005 11.7919 4.33889 12 4.33889C12.2081 4.33889 12.3944 4.21005 12.4678 4.01538C13.2238 2.01148 15.5765 0.5 18 0.5C21.0434 0.5 23.5 2.88657 23.5 5.75833C23.5 8.09972 22.4687 10.4862 20.4637 12.9268C18.5068 15.3087 15.6467 17.7114 12 20.1309C8.35334 17.7114 5.49323 15.3087 3.53634 12.9268C1.53131 10.4862 0.5 8.09972 0.5 5.75833C0.5 2.86737 2.93657 0.5 6 0.5C8.42355 0.5 10.7762 2.01148 11.5322 4.01538Z" stroke="#222222" stroke-miterlimit="10" stroke-linecap="round" stroke-linejoin="round"></path>
</svg>